<svg width="500" height="500" viewBox="0 0 500 500" fill="none" xmlns="http://www.w3.org/2000/svg">
<g clip-path="url(#clip0_1019_235)">
<path d="M121.868 395.556C118.782 395.557 115.778 393.968 114.1 391.116C103.224 372.611 82.0069 372.535 61.4879 372.461C44.0829 372.397 24.3549 372.326 20.1049 354.53C17.5259 343.73 20.9179 336.167 24.2169 331.724C34.4109 317.996 56.3609 316.326 58.8289 316.18C63.8079 315.88 68.0509 319.673 68.3429 324.635C68.6349 329.589 64.8609 333.843 59.9109 334.148C55.7969 334.412 43.0609 336.508 38.6549 342.474C37.7069 343.757 36.5679 345.97 37.6129 350.348C37.8099 351.175 38.0809 352.307 42.0879 353.267C46.8529 354.407 53.9929 354.433 61.5529 354.46C83.4949 354.539 113.545 354.648 129.618 381.994C132.137 386.279 130.704 391.795 126.419 394.313C124.988 395.156 123.418 395.556 121.868 395.556Z" fill="#330E27"/>
<path d="M148.027 396.37H268.36C268.36 396.37 271.07 390.703 269.882 388.713C268.694 386.722 264.86 380.389 261.944 381.056C259.027 381.723 246.861 384.87 241.611 383.034C241.611 383.034 253.361 367.389 253.028 358.389C252.695 349.389 249.137 313.173 239.288 308.696C229.438 304.218 148.693 381.684 148.027 396.37Z" fill="#330E27"/>
<path d="M266.211 273.337C266.211 273.337 267.64 300.722 254 320.889C240.36 341.056 241.36 349.056 241.36 349.056V398.371H224.693C224.693 398.371 207.86 360.723 209.11 344.056C210.36 327.389 214.943 306.538 214.943 306.538L266.211 273.337Z" fill="#330E27"/>
<path d="M254 320.888C240.36 341.055 241.36 349.055 241.36 349.055V376.055" stroke="#4B2321" stroke-miterlimit="10" stroke-linecap="round" stroke-linejoin="round"/>
<path d="M196.36 207.275C196.36 207.275 173.36 226.055 161.36 251.055C161.36 251.055 117.36 289.722 112.027 300.722C106.694 311.722 102.027 328.055 105.027 349.389C108.027 370.722 100.694 380.685 108.36 398.37H200.36C200.36 398.37 204.027 395.173 203.027 391.781C202.027 388.389 196.694 384.603 196.694 384.603L191.694 383.056C191.694 383.056 190.027 379.723 187.361 380.056C184.694 380.389 173.361 384.603 173.361 384.603C173.361 384.603 190.361 368.723 192.694 362.389C192.694 362.389 193.694 371.389 200.027 379.389C206.36 387.389 220.86 398.37 220.86 398.37H253.193C253.193 398.37 255.693 394.839 255.026 391.781C254.597 389.813 251.823 386.629 249.899 384.607C248.799 383.451 247.124 383.051 245.624 383.597L242.859 384.603L239.838 381.774C238.908 380.903 237.619 380.528 236.367 380.762L233.026 381.388L223.026 345.721L228.359 327.221C228.359 327.221 240.026 320.388 242.859 313.388C245.692 306.388 277.412 265.195 274.719 240.625C272.026 216.055 263.243 202.388 264.635 190.721C266.026 179.054 272.193 173.388 269.943 162.054L264.635 151.936C264.635 151.936 261.238 117.054 249.966 114.054C249.966 114.054 243.944 119.054 239.819 136.387L229.694 132.054L233.027 136.387C233.027 136.387 228.36 133.054 223.027 131.387L223.694 136.387L219.027 135.72C219.027 135.72 206.694 118.053 197.36 117.053L194.027 141.72C194.027 141.72 190.607 152.72 189.484 155.72C189.484 155.72 180.361 170.328 179.027 175.357C177.693 180.388 182.36 193.161 196.36 207.275Z" fill="#4B2321"/>
<path d="M211.193 158.867C211.193 158.867 200.899 157.77 201.129 166.162C201.359 174.554 205.109 175.941 205.109 175.941L206.158 175.669C206.158 175.669 208.859 185.471 216.859 186.054C224.859 186.637 227.603 176.887 227.731 174.054C227.731 174.054 233.442 173.054 232.359 163.137C232.359 163.137 232.026 155.387 215.526 158.819L211.193 158.867Z" fill="#FFFFEC"/>
<path d="M193.218 144.305C193.218 144.305 195.86 139.722 201.86 138.055L206.537 136.375C206.537 136.375 204.36 121.055 197.36 117.055L194.027 141.722C194.027 141.722 193.701 142.77 193.218 144.305Z" fill="#FFA675"/>
<path d="M239.818 136.388C239.818 136.388 250.86 138.055 256.36 144.305C256.36 144.305 258.572 129.305 249.966 114.055C249.966 114.055 243.943 119.055 239.818 136.388Z" fill="#FFA675"/>
<path d="M242.86 288.667C243.61 277.292 236.751 269.805 236.751 269.805C241.392 279.555 238.11 293.528 238.11 293.528L228.36 327.221C228.36 327.221 240.027 320.388 242.86 313.388C243.52 311.758 245.756 308.258 248.749 303.561C243.63 304.326 242.307 297.059 242.86 288.667Z" fill="#330E27"/>
<path d="M180.58 222.864C182.482 222.579 184.348 222.398 186.11 222.372C198.36 222.189 203.86 216.055 203.86 216.055L196.36 207.275C196.36 207.275 189.083 213.216 180.58 222.864Z" fill="#330E27"/>
<path d="M139.36 309.805C139.36 309.805 161.36 301.805 173.61 301.055C173.61 301.055 170.61 287.555 173.61 277.555C173.61 277.555 168.11 295.213 160.61 296.509C153.11 297.805 138.86 297.555 139.36 309.805Z" fill="#330E27"/>
<path d="M231.527 252.888C231.527 252.888 236.416 257.888 238.555 263.721" stroke="#330E27" stroke-miterlimit="10" stroke-linecap="round" stroke-linejoin="round"/>
<path d="M233.027 261.055C233.027 261.055 238.481 265.744 238.555 269.055" stroke="#330E27" stroke-miterlimit="10" stroke-linecap="round" stroke-linejoin="round"/>
<path d="M126.36 315.888C126.36 315.888 127.86 312.555 139.36 309.805" stroke="#330E27" stroke-miterlimit="10" stroke-linecap="round" stroke-linejoin="round"/>
<path d="M138.193 307.055C138.193 307.055 134.693 305.888 130.026 307.055" stroke="#330E27" stroke-miterlimit="10" stroke-linecap="round" stroke-linejoin="round"/>
<path d="M175.36 301.222C175.36 301.222 191.86 304.639 199.027 312.847C206.194 321.055 209.027 330.555 192.694 362.389" stroke="#330E27" stroke-miterlimit="10" stroke-linecap="round" stroke-linejoin="round"/>
<path d="M191.693 383.055C191.693 383.055 195.693 388.222 195.526 391.222C195.359 394.222 193.612 397.555 193.612 397.555" stroke="#330E27" stroke-miterlimit="10" stroke-linecap="round" stroke-linejoin="round"/>
<path d="M182.678 381.34C182.678 381.34 188.36 388.555 188.027 391.888C187.694 395.221 185.36 398.369 185.36 398.369" stroke="#330E27" stroke-miterlimit="10" stroke-linecap="round" stroke-linejoin="round"/>
<path d="M173.36 384.602C173.36 384.602 165.86 391.888 159.86 393.888" stroke="#330E27" stroke-miterlimit="10" stroke-linecap="round" stroke-linejoin="round"/>
<path d="M223.027 345.722C223.027 345.722 221.194 354.055 216.86 356.055C212.527 358.055 206.86 354.222 206.86 354.222" stroke="#330E27" stroke-miterlimit="10" stroke-linecap="round" stroke-linejoin="round"/>
<path d="M220.027 392.791C220.027 392.791 222.36 386.482 224.527 384.602C226.694 382.722 233.027 381.388 233.027 381.388" stroke="#330E27" stroke-miterlimit="10" stroke-linecap="round" stroke-linejoin="round"/>
<path d="M229.193 383.055C229.193 383.055 236.693 385.655 237.693 389.855C238.693 394.055 237.693 398.37 237.693 398.37" stroke="#330E27" stroke-miterlimit="10" stroke-linecap="round" stroke-linejoin="round"/>
<path d="M242.86 384.602C242.86 384.602 247.193 388.036 247.193 390.712C247.193 393.388 247.193 398.527 247.193 398.527" stroke="#330E27" stroke-miterlimit="10" stroke-linecap="round" stroke-linejoin="round"/>
<path d="M155.36 261.055C155.36 261.055 157.193 260.888 161.36 251.055" stroke="#330E27" stroke-miterlimit="10" stroke-linecap="round" stroke-linejoin="round"/>
<path d="M219.027 135.722H211.193" stroke="#330E27" stroke-miterlimit="10" stroke-linecap="round" stroke-linejoin="round"/>
<path d="M202.027 162.555C202.027 162.555 199.86 167.222 202.027 172.055C204.194 176.888 205.714 176.163 206.537 175.359C207.36 174.555 213.193 170.222 213.193 170.222C213.193 170.222 221.693 175.222 225.86 174.555C230.027 173.888 231.693 171.055 232.36 168.222C233.027 165.389 232.36 163.222 232.36 163.222" stroke="#330E27" stroke-miterlimit="10" stroke-linecap="round" stroke-linejoin="round"/>
<path d="M213.193 170.222C213.193 170.222 212.026 167.77 212.026 166.163" stroke="#330E27" stroke-miterlimit="10" stroke-linecap="round" stroke-linejoin="round"/>
<path d="M208.721 158.265L215.744 157.869C216.661 157.817 217.157 158.925 216.507 159.575L212.745 163.337C212.35 163.732 211.708 163.727 211.32 163.326L208.059 159.96C207.463 159.344 207.866 158.313 208.721 158.265Z" fill="#330E27"/>
<path d="M195.86 158.867C195.86 158.867 194.693 151.554 199.027 149.554C203.36 147.554 208.025 150.867 207.776 153.71C207.527 156.554 203.86 157.866 203.86 157.866L195.86 158.867Z" fill="#FFDC99"/>
<path d="M207.776 153.711C207.989 151.278 204.604 148.513 200.908 149.014C199.486 150.03 198.527 151.92 198.527 154.09C198.527 155.768 199.102 157.278 200.019 158.347L203.861 157.867C203.861 157.867 207.527 156.555 207.776 153.711Z" fill="#330E27"/>
<path d="M193.218 158.867L203.86 157.867" stroke="#330E27" stroke-miterlimit="10" stroke-linecap="round" stroke-linejoin="round"/>
<path d="M196.527 148.944C196.527 148.944 204.001 146.124 207.597 152.506" stroke="#330E27" stroke-miterlimit="10" stroke-linecap="round" stroke-linejoin="round"/>
<path d="M234.892 156.555C228.758 151.055 222.526 156.555 222.526 156.555C222.526 156.555 222.193 151.189 225.193 148.955" stroke="#330E27" stroke-miterlimit="10" stroke-linecap="round" stroke-linejoin="round"/>
<path d="M206.537 182.722C206.537 182.722 209.193 189.889 219.027 190.722" stroke="#330E27" stroke-miterlimit="10" stroke-linecap="round" stroke-linejoin="round"/>
<path d="M212.027 190.722C212.027 190.722 214.027 193.969 219.027 194.762" stroke="#330E27" stroke-miterlimit="10" stroke-linecap="round" stroke-linejoin="round"/>
<path d="M206.86 221.222C206.86 221.222 210.027 232.222 224.693 240.626C229.492 243.375 232.637 245.983 234.901 248.528" stroke="#330E27" stroke-miterlimit="10" stroke-linecap="round" stroke-linejoin="round"/>
<path d="M231.527 325.164C231.527 325.164 240.436 319.343 245.194 310.508C249.952 301.673 258.027 290.462 258.027 290.462" stroke="#4B2321" stroke-miterlimit="10" stroke-linecap="round" stroke-linejoin="round"/>
<path d="M192.22 165.055C192.22 165.055 171.36 158.347 155.36 158.867" stroke="#330E27" stroke-width="0.75" stroke-miterlimit="10" stroke-linecap="round" stroke-linejoin="round"/>
<path d="M190.041 170.222L161.36 172.012" stroke="#330E27" stroke-width="0.75" stroke-miterlimit="10" stroke-linecap="round" stroke-linejoin="round"/>
<path d="M238.555 161.947C238.555 161.947 259.027 149.055 283.36 145.722" stroke="#330E27" stroke-width="0.75" stroke-miterlimit="10" stroke-linecap="round" stroke-linejoin="round"/>
<path d="M239.818 168.192C239.818 168.192 249.048 159.401 274.564 161.947" stroke="#330E27" stroke-width="0.75" stroke-miterlimit="10" stroke-linecap="round" stroke-linejoin="round"/>
<path d="M370.116 314.722C356.271 303.023 311.949 302.555 305.616 332.222C300.434 356.497 310.574 371.055 310.574 371.055C314.7 378.805 326.116 387.722 326.116 387.722L312.327 386.94C312.327 386.94 307.919 385.224 306.448 385.805C303.282 387.055 301.948 392.305 301.698 394.555C301.448 396.805 304.574 398.305 304.574 398.305C304.574 398.305 378.448 398.805 386.448 398.305C386.448 398.305 422.782 359.222 370.116 314.722Z" fill="#DC5400"/>
<path d="M283.36 317.055C283.36 317.055 280.61 334.805 283.36 351.805C286.11 368.805 280.11 388.555 280.11 388.555L269.61 385.805C269.61 385.805 265.11 386.805 263.61 389.805C262.11 392.805 263.61 396.805 263.61 396.805H290.86C290.86 396.805 307.61 373.055 306.86 350.555L283.36 317.055Z" fill="#DC5400"/>
<path d="M469.607 223.242C452.527 222.075 438.581 229.298 431.336 243.061C420.88 262.925 425.963 292.433 443.697 314.82C464.665 341.287 451.643 364.189 441.828 372.601C436.462 377.202 426.19 377.185 417.731 376.039C419.678 372.492 421.571 368.506 423.361 364.056C432.611 341.056 426.361 310.806 410.111 289.556C393.861 268.306 337.861 252.723 337.861 252.723C337.861 252.723 331.611 249.556 326.111 240.056C323.821 236.101 320.102 232.062 316.54 228.691C315.663 225.716 314.382 223.047 312.527 221.056L317.027 223.389C317.027 223.389 316.694 219.222 313.694 216.056C310.694 212.889 308.694 209.389 308.694 209.389C308.694 209.389 313.194 201.056 311.694 193.722C310.194 186.389 301.027 180.389 301.027 180.389C301.027 180.389 303.86 169.889 298.36 161.056C292.86 152.223 292.527 151.223 292.527 151.223C292.527 151.223 290.527 157.556 289.194 159.556C287.861 161.556 280.027 168.556 278.361 172.556C278.361 172.556 262.194 170.389 254.028 178.056C254.028 178.056 248.195 175.056 243.528 174.056C238.861 173.056 233.861 168.723 233.861 168.723C233.861 168.723 233.361 176.723 235.194 180.39C237.027 184.057 237.861 190.89 236.027 193.89C234.194 196.89 229.694 208.057 231.194 217.057C232.694 226.057 245.361 233.39 251.027 234.89C251.027 234.89 246.027 265.557 247.527 280.723C249.027 295.89 256.194 322.056 262.36 330.723L263.193 321.556C263.193 321.556 263.193 326.496 269.702 333.24C272.767 336.416 276.404 338.978 280.363 340.93C284.364 342.903 291.046 346.615 295.208 351.145L298.61 356.055C298.61 364.305 291.11 387.305 291.11 387.305L283.36 385.305L280.61 387.055C280.61 387.055 278.36 387.055 276.61 386.305C274.86 385.555 271.61 389.305 270.86 392.555C270.11 395.805 272.61 398.527 272.61 398.527H297.86C308.61 390.499 318.236 371.055 318.236 371.055C322.362 378.805 333.86 386.555 333.86 386.555C333.86 386.555 327.61 385.305 326.11 385.055C324.61 384.805 323.61 386.805 323.61 386.805C323.61 386.805 321.61 385.305 320.11 385.805C318.61 386.305 315.61 392.305 315.36 394.555C315.11 396.805 318.236 398.305 318.236 398.305C318.236 398.305 386.11 398.805 394.11 398.305C397.686 398.082 402.062 395.803 406.634 391.305C411.391 392.416 418.566 393.706 426.253 393.706C435.517 393.706 445.517 391.831 452.892 385.51C469.29 371.454 483.922 338.219 457.023 304.264C443.553 287.261 439.078 264.852 446.38 250.98C450.522 243.11 457.965 239.49 468.448 240.203C473.137 240.522 477.188 236.987 477.509 232.303C477.828 227.618 474.291 223.561 469.607 223.242Z" fill="#FF9600"/>
<path d="M245.966 182.722C246.447 181.764 254.027 178.055 254.027 178.055C254.027 178.055 251.164 176.584 247.846 175.359C247.999 178.224 245.966 182.722 245.966 182.722Z" fill="#DC5400"/>
<path d="M441.828 372.601C436.462 377.202 426.19 377.185 417.731 376.039L411.194 383.722C411.194 383.722 435.285 380.136 441.828 372.601Z" fill="#DC5400"/>
<path d="M363.11 391.805C347.693 391.797 333.86 386.555 333.86 386.555C333.86 386.555 327.61 385.305 326.11 385.055C324.61 384.805 323.61 386.805 323.61 386.805C323.61 386.805 321.61 385.305 320.11 385.805C318.61 386.305 315.61 392.305 315.36 394.555C315.11 396.805 318.236 398.305 318.236 398.305C318.236 398.305 364.296 398.644 385 398.484C380.096 395.484 372.231 391.81 363.11 391.805Z" fill="#FCE8C8"/>
<path d="M297.111 386.23C294.258 383.124 294.937 375.718 295.954 370.677C293.796 379.063 291.109 387.305 291.109 387.305L283.359 385.305L280.609 387.055C280.609 387.055 278.359 387.055 276.609 386.305C274.859 385.555 271.609 389.305 270.859 392.555C270.109 395.805 272.609 398.527 272.609 398.527H297.859C301.834 395.559 305.653 391.03 308.89 386.501C306.478 389.721 302.527 392.127 297.111 386.23Z" fill="#FCE8C8"/>
<path d="M314.61 249.805L317.36 255.805C319.61 242.305 316.913 230.055 316.913 230.055H317.95C317.48 229.59 317.008 229.134 316.54 228.69C315.663 225.715 314.382 223.046 312.527 221.055L317.027 223.388C317.027 223.388 316.694 219.221 313.694 216.055C310.694 212.888 308.694 209.388 308.694 209.388C308.694 209.388 310.378 206.257 311.342 202.15C304.608 198.21 299.501 200.209 293.291 202.888C286.721 205.721 275.528 200.721 275.528 200.721C269.945 193.388 260.111 194.888 260.111 194.888L255.766 199.055L252.361 197.437C245.611 201.819 245.556 206.805 245.556 206.805C237.031 211.775 233.894 217.866 232.753 221.319C236.657 228.297 246.289 233.633 251.029 234.888C251.029 234.888 246.029 265.555 247.529 280.721C249.029 295.888 256.196 322.054 262.362 330.721L263.195 321.554C263.195 321.554 263.195 326.494 269.704 333.238C272.769 336.414 276.406 338.976 280.365 340.928C284.366 342.901 291.048 346.613 295.21 351.143L298.612 356.053C298.362 338.803 290.362 327.22 290.362 327.22L295.362 332.29C295.362 324.027 290.577 317.053 290.577 317.053L294.195 320.886C292.028 299.219 297.112 290.803 307.112 276.363C317.11 261.925 314.61 249.805 314.61 249.805Z" fill="#FCE8C8"/>
<path d="M298.36 161.055C294.84 155.402 293.441 152.964 292.886 151.937C292.942 154.768 292.935 158.333 292.693 161.555C292.193 168.222 287.526 176.555 287.526 176.555C292.693 172.722 301.026 180.388 301.026 180.388C301.026 180.388 303.86 169.888 298.36 161.055Z" fill="#4B2321"/>
<path d="M254.92 196.536C254.92 196.536 253.097 195.18 251.659 196.618C250.201 198.076 251.36 200.346 255.875 200.721C255.875 200.721 262.103 197.38 260.312 195.213C257.967 192.378 254.92 196.536 254.92 196.536Z" fill="#4B2321"/>
<path d="M339.86 293.974L343.11 283.805C343.11 283.805 360.36 295.055 368.527 296.055C368.527 296.055 349.193 292.227 339.86 293.974Z" fill="#DC5400"/>
<path d="M294.193 320.888C294.193 320.888 290.193 305.221 299.026 290.055C305.466 278.997 311.995 269.357 314.285 260.037" stroke="#4B2321" stroke-miterlimit="10" stroke-linecap="round" stroke-linejoin="round"/>
<path d="M295.36 332.222C295.36 332.222 294.36 322.389 290.027 316.222" stroke="#4B2321" stroke-miterlimit="10" stroke-linecap="round" stroke-linejoin="round"/>
<path d="M297.527 354.222C297.527 354.222 297.36 337.722 290.36 327.222" stroke="#4B2321" stroke-miterlimit="10" stroke-linecap="round" stroke-linejoin="round"/>
<path d="M314.86 249.722L317.193 256.222C317.193 256.222 321.526 230.722 312.526 221.055" stroke="#4B2321" stroke-miterlimit="10" stroke-linecap="round" stroke-linejoin="round"/>
<path d="M318.236 371.055C318.236 371.055 303.909 356.305 306.884 332.055C309.859 307.805 322.109 292.805 349.109 293.555C349.109 293.555 364.359 294.305 375.359 298.555" stroke="#4B2321" stroke-miterlimit="10" stroke-linecap="round" stroke-linejoin="round"/>
<path d="M375.36 293.528C375.36 293.528 382.86 297.305 385.86 302.555" stroke="#4B2321" stroke-miterlimit="10" stroke-linecap="round" stroke-linejoin="round"/>
<path d="M385.86 298.042C385.86 298.042 389.61 299.555 390.36 304.305" stroke="#4B2321" stroke-miterlimit="10" stroke-linecap="round" stroke-linejoin="round"/>
<path d="M339.86 293.528L343.11 283.805" stroke="#4B2321" stroke-miterlimit="10" stroke-linecap="round" stroke-linejoin="round"/>
<path d="M333.86 386.555C333.86 386.555 348.61 392.055 363.11 391.805" stroke="#4B2321" stroke-miterlimit="10" stroke-linecap="round" stroke-linejoin="round"/>
<path d="M323.61 386.805C323.61 386.805 318.863 393.787 319.86 396.055C320.857 398.323 321.666 398.527 321.666 398.527" stroke="#4B2321" stroke-miterlimit="10" stroke-linecap="round" stroke-linejoin="round"/>
<path d="M330.47 385.884C330.47 385.884 325.352 392.629 325.602 395.055C325.852 397.481 328.036 398.37 328.036 398.37" stroke="#4B2321" stroke-miterlimit="10" stroke-linecap="round" stroke-linejoin="round"/>
<path d="M289.172 386.805C289.172 386.805 284.734 386.43 284.734 390.93C284.734 395.43 282.359 396.684 284.734 398.37" stroke="#4B2321" stroke-miterlimit="10" stroke-linecap="round" stroke-linejoin="round"/>
<path d="M280.61 387.055C280.61 387.055 276.61 391.055 276.735 393.68C276.86 396.305 277.043 397.347 278.235 398.527" stroke="#4B2321" stroke-miterlimit="10" stroke-linecap="round" stroke-linejoin="round"/>
<path d="M337.86 252.722L344.193 257.888" stroke="#4B2321" stroke-miterlimit="10" stroke-linecap="round" stroke-linejoin="round"/>
<path d="M251.027 234.888C251.027 234.888 265.935 238.555 274.565 236.388" stroke="#4B2321" stroke-miterlimit="10" stroke-linecap="round" stroke-linejoin="round"/>
<path d="M260.193 238.722C260.193 238.722 265.193 241.055 271.693 240.555" stroke="#4B2321" stroke-miterlimit="10" stroke-linecap="round" stroke-linejoin="round"/>
<path d="M246.527 202.888C246.527 202.888 243.86 207.721 247.36 212.221C250.86 216.721 254.36 215.054 255.693 211.388C257.026 207.721 260.54 208.913 260.54 208.913C260.54 208.913 271.026 214.555 275.526 206.555" stroke="#4B2321" stroke-miterlimit="10" stroke-linecap="round" stroke-linejoin="round"/>
<path d="M255.693 221.222C255.693 221.222 258.693 226.722 264.526 226.889" stroke="#4B2321" stroke-miterlimit="10" stroke-linecap="round" stroke-linejoin="round"/>
<path d="M254.027 178.055C254.027 178.055 246.36 180.888 241.194 187.388" stroke="#4B2321" stroke-miterlimit="10" stroke-linecap="round" stroke-linejoin="round"/>
<path d="M266.693 189.388C266.693 189.388 272.526 181.888 281.693 188.221" stroke="#4B2321" stroke-miterlimit="10" stroke-linecap="round" stroke-linejoin="round"/>
<path d="M238.86 197.437C238.86 197.437 242.693 190.249 249.193 194.152" stroke="#4B2321" stroke-miterlimit="10" stroke-linecap="round" stroke-linejoin="round"/>
<path d="M363.11 388.388C363.11 388.388 366.527 391.238 370.36 391.813" stroke="#4B2321" stroke-miterlimit="10" stroke-linecap="round" stroke-linejoin="round"/>
<path d="M370.36 388.388C370.36 388.388 373.86 392.238 378.527 391.813" stroke="#4B2321" stroke-miterlimit="10" stroke-linecap="round" stroke-linejoin="round"/>
<path d="M308.693 209.388L305.527 214.938" stroke="#4B2321" stroke-miterlimit="10" stroke-linecap="round" stroke-linejoin="round"/>
<path d="M417.73 376.038C417.73 376.038 412.86 382.712 409.693 385.883" stroke="#4B2321" stroke-miterlimit="10" stroke-linecap="round" stroke-linejoin="round"/>
<path d="M260.541 290.462C260.541 290.462 257.86 295.554 257.86 302.554" stroke="#4B2321" stroke-miterlimit="10" stroke-linecap="round" stroke-linejoin="round"/>
<path d="M262.796 296.509C262.796 296.509 261.481 302.555 262.796 308.055" stroke="#4B2321" stroke-miterlimit="10" stroke-linecap="round" stroke-linejoin="round"/>
<path d="M258.633 208.774C258.633 208.774 256.421 205.43 255.765 199.93" stroke="#4B2321" stroke-miterlimit="10" stroke-linecap="round" stroke-linejoin="round"/>
<path d="M281.693 198.722C281.693 198.722 302.579 184.389 330.469 182.722" stroke="#4B2321" stroke-width="0.75" stroke-miterlimit="10" stroke-linecap="round" stroke-linejoin="round"/>
<path d="M283.36 202.888C283.36 202.888 306.491 196.89 325.592 197.473" stroke="#4B2321" stroke-width="0.75" stroke-miterlimit="10" stroke-linecap="round" stroke-linejoin="round"/>
<path d="M284.914 208.913C284.914 208.913 307.027 207.055 319.693 209.388" stroke="#4B2321" stroke-width="0.75" stroke-miterlimit="10" stroke-linecap="round" stroke-linejoin="round"/>
<path d="M241.193 207.305C241.193 207.305 225.61 206.055 205.11 219.555" stroke="#4B2321" stroke-width="0.75" stroke-miterlimit="10" stroke-linecap="round" stroke-linejoin="round"/>
<path d="M241.193 212.163C241.193 212.163 230.11 214.722 216.86 226.888" stroke="#4B2321" stroke-width="0.75" stroke-miterlimit="10" stroke-linecap="round" stroke-linejoin="round"/>
<path d="M242.61 216.055C242.61 216.055 234.693 222.323 229.027 228.689" stroke="#4B2321" stroke-width="0.75" stroke-miterlimit="10" stroke-linecap="round" stroke-linejoin="round"/>
<path d="M52.46 397.805L454.44 399.527" stroke="#330E27" stroke-miterlimit="10" stroke-linecap="round" stroke-linejoin="round"/>
<path d="M267.131 87.336C267.131 83.25 263.818 79.937 259.732 79.937C257.077 79.937 254.755 81.34 253.45 83.441C252.145 81.34 249.823 79.937 247.168 79.937C243.082 79.937 239.769 83.25 239.769 87.336C239.769 95.852 253.357 104.507 253.357 104.507C253.357 104.507 267.131 95.852 267.131 87.336Z" fill="#FF4B63"/>
<path d="M144.692 155.973C143.471 154.335 141.153 153.997 139.515 155.219C138.451 156.013 137.94 157.269 138.044 158.501C136.893 158.049 135.543 158.181 134.479 158.974C132.841 160.195 132.503 162.513 133.725 164.151C136.27 167.564 144.304 166.973 144.304 166.973C144.304 166.973 147.237 159.387 144.692 155.973Z" fill="#FF4B63"/>
<path d="M289.074 123.545C290.259 121.881 289.87 119.571 288.205 118.386C287.124 117.616 285.772 117.514 284.631 117.991C284.709 116.757 284.169 115.512 283.088 114.742C281.424 113.557 279.114 113.945 277.929 115.61C275.459 119.078 278.484 126.544 278.484 126.544C278.484 126.544 286.604 127.013 289.074 123.545Z" fill="#FF4B63"/>
<path d="M351.65 174.394C352.021 172.385 350.693 170.455 348.684 170.084C347.378 169.843 346.11 170.322 345.277 171.236C344.826 170.085 343.812 169.184 342.506 168.943C340.497 168.572 338.567 169.9 338.196 171.909C337.423 176.096 343.318 181.585 343.318 181.585C343.318 181.585 350.877 178.581 351.65 174.394Z" fill="#FF4B63"/>
<path d="M134.299 187.383C133.782 185.01 131.439 183.505 129.066 184.023C127.524 184.359 126.353 185.468 125.861 186.853C124.837 185.798 123.311 185.277 121.769 185.613C119.396 186.13 117.891 188.473 118.409 190.846C119.486 195.791 128.473 199.098 128.473 199.098C128.473 199.098 135.376 192.328 134.299 187.383Z" fill="#FF4B63"/>
<path d="M215.753 100.262C215.456 98.899 214.11 98.035 212.747 98.332C211.861 98.525 211.189 99.162 210.906 99.957C210.318 99.351 209.442 99.052 208.556 99.245C207.193 99.542 206.329 100.888 206.626 102.251C207.245 105.091 212.407 106.991 212.407 106.991C212.407 106.991 216.372 103.103 215.753 100.262Z" fill="#FF4B63"/>
<path d="M364.141 195.582C364.545 194.247 363.791 192.837 362.455 192.433C361.588 192.17 360.69 192.399 360.056 192.956C359.837 192.14 359.217 191.452 358.35 191.19C357.015 190.786 355.605 191.54 355.2 192.876C354.358 195.658 357.941 199.831 357.941 199.831C357.941 199.831 363.298 198.365 364.141 195.582Z" fill="#FF4B63"/>
</g>
<defs>
<clipPath id="clip0_1019_235">
<rect width="500" height="500" fill="white"/>
</clipPath>
</defs>
</svg>
